<svg width="11" height="10" viewBox="0 0 11 10" fill="none" xmlns="http://www.w3.org/2000/svg">
<path d="M5.5 3.49995C5.60878 3.49995 5.71512 3.52928 5.80556 3.58422C5.89601 3.63916 5.96651 3.71724 6.00813 3.8086C6.04976 3.89997 6.06065 4.0005 6.03943 4.09749C6.01821 4.19448 5.96583 4.28357 5.88891 4.35349C5.81199 4.42342 5.71399 4.47104 5.6073 4.49033C5.50061 4.50962 5.39002 4.49972 5.28952 4.46188C5.18902 4.42403 5.10313 4.35995 5.04269 4.27773C4.98226 4.1955 4.95 4.09883 4.95 3.99994C4.95 3.86734 5.00795 3.74016 5.11109 3.6464C5.21424 3.55263 5.35413 3.49995 5.5 3.49995ZM1.65 0H9.35C9.78761 0 10.2073 0.158033 10.5167 0.439334C10.8262 0.720634 11 1.10216 11 1.49998V6.49991C11 6.89773 10.8262 7.27925 10.5167 7.56055C10.2073 7.84186 9.78761 7.99989 9.35 7.99989H2.9755L0.940499 9.85486C0.889108 9.9012 0.828159 9.93787 0.761148 9.96275C0.694139 9.98763 0.622383 10.0002 0.55 9.99986C0.477853 10.0016 0.406274 9.98785 0.341001 9.95986C0.24056 9.92235 0.154579 9.85865 0.0938959 9.77679C0.0332127 9.69494 0.000541687 9.59858 0 9.49987V1.49998C0 1.10216 0.173839 0.720634 0.483274 0.439334C0.792708 0.158033 1.21239 0 1.65 0ZM1.1 8.29488L2.3595 7.1449C2.41089 7.09856 2.47184 7.0619 2.53885 7.03702C2.60586 7.01213 2.67762 6.99952 2.75 6.9999H9.35C9.49587 6.9999 9.63576 6.94722 9.73891 6.85346C9.84205 6.75969 9.9 6.63252 9.9 6.49991V1.49998C9.9 1.36737 9.84205 1.2402 9.73891 1.14643C9.63576 1.05266 9.49587 0.999986 9.35 0.999986H1.65C1.50413 0.999986 1.36424 1.05266 1.26109 1.14643C1.15795 1.2402 1.1 1.36737 1.1 1.49998V8.29488ZM7.7 3.49995C7.80878 3.49995 7.91512 3.52928 8.00556 3.58422C8.09601 3.63916 8.16651 3.71724 8.20813 3.8086C8.24976 3.89997 8.26065 4.0005 8.23943 4.09749C8.21821 4.19448 8.16583 4.28357 8.08891 4.35349C8.01199 4.42342 7.91399 4.47104 7.8073 4.49033C7.70061 4.50962 7.59002 4.49972 7.48952 4.46188C7.38902 4.42403 7.30313 4.35995 7.24269 4.27773C7.18226 4.1955 7.15 4.09883 7.15 3.99994C7.15 3.86734 7.20795 3.74016 7.31109 3.6464C7.41424 3.55263 7.55413 3.49995 7.7 3.49995ZM3.3 3.49995C3.40878 3.49995 3.51512 3.52928 3.60556 3.58422C3.69601 3.63916 3.76651 3.71724 3.80813 3.8086C3.84976 3.89997 3.86065 4.0005 3.83943 4.09749C3.81821 4.19448 3.76583 4.28357 3.68891 4.35349C3.61199 4.42342 3.51399 4.47104 3.4073 4.49033C3.30061 4.50962 3.19002 4.49972 3.08952 4.46188C2.98903 4.42403 2.90313 4.35995 2.84269 4.27773C2.78226 4.1955 2.75 4.09883 2.75 3.99994C2.75 3.86734 2.80795 3.74016 2.91109 3.6464C3.01424 3.55263 3.15413 3.49995 3.3 3.49995Z" fill="#1C1C1C"/>
</svg>
