<svg width="11" height="10" viewBox="0 0 11 10" fill="none" xmlns="http://www.w3.org/2000/svg">
<path d="M5.48485 9.99999C5.73747 10.001 5.98019 9.89578 6.15992 9.70737L10.1105 5.51488C10.4023 5.20433 10.6315 4.83403 10.7843 4.42651C10.937 4.01899 11.01 3.58276 10.9989 3.14435C10.9878 2.70594 10.8928 2.27451 10.7196 1.8763C10.5464 1.47808 10.2988 1.12141 9.99162 0.827964C9.69565 0.547565 9.34946 0.333354 8.97373 0.198129C8.59799 0.0629031 8.20043 0.00943739 7.80479 0.0409258C7.01383 0.0965408 6.26882 0.455108 5.70829 1.04995L5.48485 1.28707L5.16634 0.944002C4.87371 0.634319 4.52478 0.391039 4.14078 0.228955C3.75677 0.0668718 3.34572 -0.0106275 2.9326 0.00117042C2.51949 0.0129684 2.11296 0.113817 1.73772 0.297583C1.36249 0.48135 1.0264 0.744193 0.749887 1.07013C0.48567 1.38423 0.283821 1.75162 0.156399 2.15036C0.0289764 2.54911 -0.0214033 2.97101 0.0082674 3.39088C0.0606728 4.23029 0.398548 5.02093 0.959064 5.61578L4.81454 9.70737C4.9025 9.80074 5.00704 9.87467 5.12209 9.92489C5.23715 9.97512 5.36044 10.0006 5.48485 9.99999ZM8.00446 1.24671C8.45363 1.24016 8.88907 1.41098 9.22623 1.726C9.41896 1.90904 9.57448 2.13188 9.68327 2.38089C9.79207 2.6299 9.85185 2.89985 9.85897 3.17422C9.86609 3.44859 9.8204 3.72162 9.72468 3.97661C9.62896 4.2316 9.48524 4.46319 9.3023 4.65721L5.48485 8.70844L1.76724 4.76316C1.01136 3.95594 0.935293 2.66439 1.5961 1.88239C1.76858 1.67786 1.97856 1.51282 2.2132 1.39737C2.44784 1.28191 2.70221 1.21846 2.96075 1.21091C3.21929 1.20335 3.47656 1.25184 3.71684 1.35342C3.95711 1.455 4.17533 1.60753 4.35816 1.80167L5.08076 2.56853C5.13376 2.62497 5.19674 2.66975 5.26608 2.70031C5.33542 2.73087 5.40977 2.7466 5.48485 2.7466C5.55993 2.7466 5.63428 2.73087 5.70362 2.70031C5.77296 2.66975 5.83594 2.62497 5.88894 2.56853L6.51647 1.90762C6.71124 1.69887 6.94297 1.53302 7.19832 1.4196C7.45368 1.30618 7.72764 1.24742 8.00446 1.24671Z" fill="#1C1C1C"/>
</svg>
