<svg width="20" height="20" viewBox="0 0 20 20" fill="none" xmlns="http://www.w3.org/2000/svg">
<path d="M19 19L13.8571 13.8571M8.71429 16.4286C7.70123 16.4286 6.6981 16.229 5.76216 15.8414C4.82622 15.4537 3.9758 14.8854 3.25946 14.1691C2.54312 13.4528 1.97489 12.6024 1.58722 11.6664C1.19954 10.7305 1 9.72734 1 8.71429C1 7.70123 1.19954 6.6981 1.58722 5.76216C1.97489 4.82622 2.54312 3.9758 3.25946 3.25946C3.9758 2.54312 4.82622 1.97489 5.76216 1.58722C6.6981 1.19954 7.70123 1 8.71429 1C10.7602 1 12.7224 1.81275 14.1691 3.25946C15.6158 4.70617 16.4286 6.66833 16.4286 8.71429C16.4286 10.7602 15.6158 12.7224 14.1691 14.1691C12.7224 15.6158 10.7602 16.4286 8.71429 16.4286Z" stroke="#1C1C1C" stroke-width="2"/>
</svg>
