<svg width="8" height="9" viewBox="0 0 8 9" fill="none" xmlns="http://www.w3.org/2000/svg">
<path d="M3.99918 6.64999L2.14918 8.06249C2.05751 8.13749 1.95751 8.17282 1.84918 8.16849C1.74084 8.16449 1.64501 8.13332 1.56168 8.07499C1.47834 8.01665 1.41384 7.93749 1.36818 7.83749C1.32218 7.73749 1.32001 7.62916 1.36168 7.51249L2.07418 5.19999L0.261677 3.91249C0.161677 3.84582 0.0991769 3.75832 0.0741769 3.64999C0.0491769 3.54166 0.0533436 3.44165 0.0866769 3.34999C0.12001 3.25832 0.178344 3.17699 0.261677 3.10599C0.34501 3.03532 0.44501 2.99999 0.561677 2.99999H2.79918L3.52418 0.599988C3.56584 0.483321 3.63051 0.393655 3.71818 0.330988C3.80551 0.268655 3.89918 0.237488 3.99918 0.237488C4.09918 0.237488 4.19284 0.268655 4.28018 0.330988C4.36784 0.393655 4.43251 0.483321 4.47418 0.599988L5.19918 2.99999H7.43668C7.55335 2.99999 7.65335 3.03532 7.73668 3.10599C7.82001 3.17699 7.87835 3.25832 7.91168 3.34999C7.94501 3.44165 7.94918 3.54166 7.92418 3.64999C7.89918 3.75832 7.83668 3.84582 7.73668 3.91249L5.92418 5.19999L6.63668 7.51249C6.67835 7.62916 6.67635 7.73749 6.63068 7.83749C6.58468 7.93749 6.52001 8.01665 6.43668 8.07499C6.35334 8.13332 6.25751 8.16449 6.14918 8.16849C6.04084 8.17282 5.94085 8.13749 5.84918 8.06249L3.99918 6.64999Z" fill="#E1D036"/>
</svg>
